<svg width="46" height="46" viewBox="0 0 46 46" fill="none" xmlns="http://www.w3.org/2000/svg">
<path d="M22.7 45.4C35.2369 45.4 45.4 35.2369 45.4 22.7C45.4 10.1631 35.2369 0 22.7 0C10.1631 0 0 10.1631 0 22.7C0 35.2369 10.1631 45.4 22.7 45.4Z" fill="#EA8B00"/>
<path fill-rule="evenodd" clip-rule="evenodd" d="M8.7 19.7L36.6 23.3C37.3 23.4 37.9 24.1 37.8 24.9L37.7 25.5C37.6 26.2 36.9 26.8 36.2 26.7L8.30001 23.1C7.60001 23 6.99999 22.3 7.09999 21.6L7.2 21C7.2 20.2 7.9 19.6 8.7 19.7Z" fill="white"/>
<path fill-rule="evenodd" clip-rule="evenodd" d="M18.2 10.7C18.5 10.7 18.6 11 18.6 11.5C18.6 12 18.3 12.2 18.1 12.2C17.8 12.2 17.6 11.9 17.7 11.4C17.8 10.9 17.9 10.7 18.2 10.7ZM14.4 14.6C14.7 14.6 14.8 15 14.8 15.4C14.7 15.8 14.5 16.2 14.2 16.2C13.9 16.2 13.8 15.8 13.9 15.3C14 14.9 14.2 14.6 14.4 14.6ZM19.3 16.8C19.6 16.8 19.8 17.2 19.7 17.6C19.6 18 19.3 18.3 19.1 18.2C18.9 18.2 18.7 17.9 18.7 17.4C18.8 17.1 19.1 16.8 19.3 16.8ZM20.5 13.2C20.8 13.2 20.9 13.6 20.9 14C20.8 14.4 20.6 14.7 20.4 14.7C20.1 14.7 20 14.4 20 13.9C20 13.5 20.2 13.2 20.5 13.2ZM24.6 10.5C24.9 10.5 25.1 10.9 25 11.4C25 11.8 24.6 12.1 24.4 12C24.1 12 24 11.6 24 11.2C24.1 10.8 24.3 10.5 24.6 10.5ZM26.4 14.8C26.7 14.8 26.9 15.2 26.8 15.7C26.8 16.1 26.4 16.4 26.2 16.3C25.9 16.3 25.8 15.9 25.8 15.5C25.9 15.1 26.1 14.8 26.4 14.8ZM23.8 16.9C24.1 16.9 24.2 17.3 24.2 17.7C24.1 18.1 23.9 18.5 23.6 18.5C23.3 18.5 23.1 18.1 23.2 17.6C23.3 17.2 23.6 16.9 23.8 16.9ZM29.4 18.1C29.7 18.1 29.9 18.4 29.8 18.9C29.7 19.3 29.4 19.6 29.2 19.5C28.9 19.5 28.8 19.2 28.8 18.7C29 18.3 29.2 18.1 29.4 18.1ZM29.9 12.3C30.2 12.3 30.3 12.7 30.3 13.1C30.2 13.5 30 13.9 29.7 13.9C29.4 13.9 29.2 13.5 29.3 13C29.3 12.6 29.6 12.3 29.9 12.3ZM32.7 16.5C33 16.5 33.2 16.9 33.1 17.4C33.1 17.8 32.7 18.1 32.5 18C32.2 18 32.1 17.6 32.1 17.2C32.2 16.8 32.4 16.5 32.7 16.5ZM21.8 9.20001L26.5 9.8C31.7 10.5 35.6 14.7 36.1 19.8C36.1 20.2 36 20.6 35.7 20.9C35.4 21.1 35 21.3 34.6 21.2L11.2 18.2C10.8 18.1 10.4 17.9 10.2 17.6C10 17.2 9.90001 16.7 10.1 16.4C11.7 11.6 16.6 8.50001 21.8 9.20001Z" fill="white"/>
<path fill-rule="evenodd" clip-rule="evenodd" d="M9.60002 24.9L34.2 28.1C34.9 28.2 35.5 28.8 35.4 29.6L35.1 31.7C34.9 33.6 33.1 34.9 31.2 34.7L10.7 32C8.80002 31.8 7.50002 30 7.70002 28.1L8.00001 26C8.20001 25.2 8.80002 24.8 9.60002 24.9Z" fill="white"/>
</svg>
