<svg width="667" height="518" viewBox="0 0 667 518" fill="none" xmlns="http://www.w3.org/2000/svg">
<g clip-path="url(#clip0)">
<path d="M541.736 332.877L538.542 332.728C502.475 331.035 472.317 359.837 472.349 395.943C472.364 412.48 480.541 427.944 494.201 437.265L507 446L519 453L522.351 454.838C530.421 459.263 538.992 462.707 547.882 465.095L554.365 466.837C563.382 469.259 572.76 470.047 582.055 469.161C586.676 468.721 591.248 467.87 595.719 466.619L599.664 465.514C609.147 462.859 618.088 458.553 626.077 452.794L628.537 451.02C633.157 447.689 637.295 443.737 640.835 439.275C649.521 428.327 654.248 414.763 654.248 400.789L654.248 395.943L654.248 392.142C654.248 388.229 653.66 384.337 652.504 380.598C648.331 367.096 637.196 356.898 623.38 353.924L600.5 349L580.855 344.181C576.297 343.063 571.863 341.488 567.621 339.478L567.001 339.185C559.079 335.432 550.492 333.288 541.736 332.877Z" fill="url(#paint0_linear)"/>
<path d="M-180.461 286.333L-45.6245 -21.2655C-16.9324 -86.7198 47.7652 -129 119.232 -129H321.712C332.865 -129 343.993 -127.963 354.954 -125.904L456.041 -106.908C573.401 -84.8546 637.148 43.2732 583.95 150.183L580.149 157.822L547.854 214.063C543.291 222.009 538.128 229.596 532.41 236.756L494.893 283.734C487.317 293.22 478.801 301.916 469.475 309.688L414.5 355.5L377.909 380.836C352.072 398.727 322.001 409.541 290.687 412.203L238.018 416.681C227.692 417.559 217.309 417.543 206.986 416.634L110.5 408.14L-60.1839 369.386C-72.7708 366.528 -85.9258 367.515 -97.945 372.22C-151.435 393.158 -203.523 338.942 -180.461 286.333Z" fill="url(#paint1_linear)"/>
<path d="M333 471.9C333 471.9 324.6 457.6 325.4 454.4C326.2 451.2 335.3 437.1 335.3 437.1L319.7 428.2C319.7 428.2 311.5 444.6 309.8 446.4C308.1 448.2 295.6 452.1 301.1 458.3C306.6 464.5 325.2 478.4 325.2 478.4C325.2 478.4 335.8 479.8 337.6 478C339.4 476.2 336.7 475.6 335.5 474.8C334.2 474 333 471.9 333 471.9Z" fill="#FFA072"/>
<path d="M362.4 480.8H294.3V475.4L314.2 475.8L318.3 475.9C321.4 468.6 331.4 457.7 332.9 460.1C333.4 460.9 335.1 462.2 337.4 463.8C342.4 467.1 350.2 471.4 355.9 473.7C364.3 477 362.4 480.8 362.4 480.8Z" fill="#E84D4F"/>
<path d="M318.4 475.9C321.5 468.6 331.5 457.7 333 460.1C333.5 460.9 335.2 462.2 337.5 463.8C334.1 466.7 327.2 472.9 326.2 476.2" fill="#BEF0FF"/>
<path d="M403.9 436.4C403.9 436.4 408.3 448.5 409.3 450.9C410.3 453.3 413 461.1 411.7 465.4C410.4 469.7 409.4 473.9 412 475.9L460.9 477.4C460.9 477.4 452.5 469.4 442.6 465.3C432.7 461.2 427.8 461.5 424.6 445.2C421.4 428.9 422.2 433.7 422.2 433.7L403.9 436.4Z" fill="#FFA072"/>
<path d="M472.8 480.4H409.5C408.2 480.4 407.2 479.4 407.2 478.1C407.2 476.8 408.2 475.8 409.5 475.8H409.6L428.4 476.3L431 476.4L443 461.4C443 461.4 444.3 459.4 446 460.1C446.4 460.3 448.3 461.3 450.9 462.7C458.7 467 472.8 474.9 472.8 474.9C472.8 474.9 477.4 478.5 472.8 480.4Z" fill="#E84D4F"/>
<path d="M431 476.3L443 461.3C443 461.3 444.3 459.3 446 460C446.4 460.2 448.3 461.2 450.9 462.6L440 476.4" fill="#BEF0FF"/>
<path d="M328.7 385.5L341.5 439L340.4 440.8C340.4 440.8 321 435.9 317.2 427.5C317.2 427.5 321.3 408 328.7 385.5Z" fill="#C82D30"/>
<path d="M379 378.6L352.6 421.2L348.7 427.4L344.6 434.1L331.7 376.7C332.7 374 333.7 371.3 334.7 368.6C336 365.3 337.3 362.1 338.7 358.9C339.4 357.4 340 355.9 340.7 354.4C342.5 350.5 344.5 346.8 346.5 343.2C348.3 340.1 350.1 337.2 352.1 334.5H372.7L379 378.6Z" fill="#C82D30"/>
<path d="M230.8 333C230.8 333 206.5 319.2 208.6 302.4L316.8 277C316.8 277 401 270.1 407.5 310.6C414 351.1 428.8 423 428.8 423C428.8 423 435.8 435.2 423.9 436.3C412 437.5 402.9 438.4 402.9 438.4C402.9 438.4 364.1 355.9 365.7 336.7H233.3L230.8 333Z" fill="#E84D4F"/>
<path d="M388.5 250.3H593V261.2H566.6L604 480.8H597L556.2 260.9H434.3L393.7 480.8H386.6L425.3 259.8H388.5V250.3Z" fill="#6F4336"/>
<path d="M479 233.4L470.4 240.2L471.3 161.7L476.2 159L479 233.4Z" fill="#FEB829"/>
<path d="M450.8 128.2C450.8 128.2 433.4 138.3 435.9 165.1H440.7C440.7 165.1 438.5 141.3 451.6 133.3L450.8 128.2Z" fill="#C82D30"/>
<path d="M458.7 138.4C458.7 138.4 459.1 159.8 457.1 166.5L462.5 167.6C462.5 167.6 465.3 149.1 463.7 138.3H458.7V138.4Z" fill="#C82D30"/>
<path d="M415.6 155.4L471.3 161.7L470.4 240.2L396.8 232.6L415.6 155.4Z" fill="#FEC648"/>
<path d="M423.6 152.3L415.6 155.4L471.3 161.7L476.2 159L423.6 152.3Z" fill="#FEA816"/>
<path d="M444.8 128.2C444.8 128.2 427.4 138.3 429.9 165.1H434.7C434.7 165.1 432.5 141.3 445.6 133.3L444.8 128.2Z" fill="#E84A4D"/>
<path d="M453.7 138.4C453.7 138.4 454.1 159.8 452.1 166.5L457.5 167.6C457.5 167.6 460.3 149.1 458.7 138.3H453.7V138.4Z" fill="#E84A4D"/>
<path d="M496.2 113.8C496.2 113.8 474.8 116.5 471.2 114.8C467.6 113.1 463.4 106.6 456.5 110.2C449.6 113.8 440.6 121.3 441.2 123C441.8 124.7 443.5 126.2 443.1 127.4C442.7 128.5 439.7 134.3 446 135.2C446 135.2 444.3 142.8 453.1 140.9C453.1 140.9 457.3 144 464.6 139.4C471.9 134.8 477.6 130.8 477.6 130.8L497.9 133.9L496.2 113.8Z" fill="#FFA072"/>
<path d="M493.1 107.8L494.1 144.3H530.9L536.1 102.9L493.1 107.8Z" fill="#FEC648"/>
<path d="M512 250.3V246.1H570.6C570.6 246.1 578.7 245.2 576.2 237.1C573.7 229 549.6 147.7 549.6 147.7C549.6 147.7 547.9 145.5 546.6 146.7C546.6 146.7 533.7 215.4 521.6 231.4H517.3L538.8 51.7H541.8C541.8 51.7 553.5 109.4 547.9 141.2C547.9 141.2 551.5 141.6 553.4 146.3C555.3 150.9 580.3 235.9 580.3 235.9C580.3 235.9 584.3 245.4 574.5 250.3H512V250.3Z" fill="#A3BBD8"/>
<path d="M344.5 434.2L341.5 439L328.7 385.5C329.6 382.6 330.6 379.7 331.7 376.8L344.5 434.2Z" fill="#C82D30"/>
<path d="M344.5 434.2L353.1 472.4L349.1 470.5L341.5 439L344.5 434.2Z" fill="#6F4336"/>
<path d="M365.7 480.8H361.3L348.7 428L334.7 369.2L331.6 356H326.9L331.7 377.3C330.6 380.2 329.6 383.1 328.7 386L321.6 356H235.2L205 480.9H201.6L229.7 356H224.7L195.9 480.9H191.9L219.1 356C219.1 356 208.4 355.8 209.5 342.7C209.5 342.7 200.4 341.8 199.5 331.2C199.5 331.2 186.2 338 183.8 318.6C181.5 299.2 168.4 208.5 168.4 208.5C168.4 208.5 167.7 197.5 178.2 196.8C178.2 196.8 189 194.5 190.8 204C192.7 213.6 208.4 323.2 208.4 323.2C208.4 323.2 208 327.9 204.9 329.1C204.9 329.1 202.2 334 211.8 339.4C211.8 339.4 213.4 332.4 219.3 332.6C225.1 332.8 339.2 332.6 339.2 332.6C339.2 332.6 346.3 331.5 346.5 343.9C346.6 351.5 343.3 354.1 340.7 355.1C339.1 355.7 337.9 356 337.9 356L338.7 359.5L352.5 421.8L365.7 480.8Z" fill="#6F4336"/>
<path d="M207.7 305.5C207.7 305.5 242.1 304.1 267.5 293.3C292.9 282.5 315 277 316.7 277C318.4 277 314.1 269.2 314.1 269.2L232.1 290.9L204.8 296.8C204.9 296.8 205.6 304.3 207.7 305.5Z" fill="#FEC847"/>
<path d="M438 221.8C450.537 221.8 460.7 211.637 460.7 199.1C460.7 186.563 450.537 176.4 438 176.4C425.463 176.4 415.3 186.563 415.3 199.1C415.3 211.637 425.463 221.8 438 221.8Z" fill="#EA8B00"/>
<path fill-rule="evenodd" clip-rule="evenodd" d="M424 196.1L451.9 199.7C452.6 199.8 453.2 200.5 453.1 201.3L453 201.9C452.9 202.6 452.2 203.2 451.5 203.1L423.6 199.5C422.9 199.4 422.3 198.7 422.4 198L422.5 197.4C422.5 196.6 423.2 196 424 196.1Z" fill="white"/>
<path fill-rule="evenodd" clip-rule="evenodd" d="M433.5 187.1C433.8 187.1 433.9 187.4 433.9 187.9C433.9 188.4 433.6 188.6 433.4 188.6C433.1 188.6 432.9 188.3 433 187.8C433.1 187.3 433.2 187.1 433.5 187.1ZM429.7 191C430 191 430.1 191.4 430.1 191.8C430 192.2 429.8 192.6 429.5 192.6C429.2 192.6 429.1 192.2 429.2 191.7C429.3 191.3 429.5 191 429.7 191ZM434.6 193.2C434.9 193.2 435.1 193.6 435 194C434.9 194.4 434.6 194.7 434.4 194.6C434.2 194.6 434 194.3 434 193.8C434.1 193.5 434.4 193.2 434.6 193.2ZM435.8 189.6C436.1 189.6 436.2 190 436.2 190.4C436.1 190.8 435.9 191.1 435.7 191.1C435.4 191.1 435.3 190.8 435.3 190.3C435.3 189.9 435.5 189.6 435.8 189.6ZM439.9 186.9C440.2 186.9 440.4 187.3 440.3 187.8C440.3 188.2 439.9 188.5 439.7 188.4C439.4 188.4 439.3 188 439.3 187.6C439.4 187.2 439.6 186.9 439.9 186.9ZM441.7 191.2C442 191.2 442.2 191.6 442.1 192.1C442.1 192.5 441.7 192.8 441.5 192.7C441.2 192.7 441.1 192.3 441.1 191.9C441.2 191.5 441.4 191.2 441.7 191.2ZM439.1 193.3C439.4 193.3 439.5 193.7 439.5 194.1C439.4 194.5 439.2 194.9 438.9 194.9C438.6 194.9 438.4 194.5 438.5 194C438.6 193.6 438.9 193.3 439.1 193.3ZM444.7 194.5C445 194.5 445.2 194.8 445.1 195.3C445 195.7 444.7 196 444.5 195.9C444.2 195.9 444.1 195.6 444.1 195.1C444.3 194.7 444.5 194.5 444.7 194.5ZM445.2 188.7C445.5 188.7 445.6 189.1 445.6 189.5C445.5 189.9 445.3 190.3 445 190.3C444.7 190.3 444.5 189.9 444.6 189.4C444.6 189 444.9 188.7 445.2 188.7ZM448 192.9C448.3 192.9 448.5 193.3 448.4 193.8C448.4 194.2 448 194.5 447.8 194.4C447.5 194.4 447.4 194 447.4 193.6C447.5 193.2 447.7 192.9 448 192.9ZM437.1 185.6L441.8 186.2C447 186.9 450.9 191.1 451.4 196.2C451.4 196.6 451.3 197 451 197.3C450.7 197.5 450.3 197.7 449.9 197.6L426.5 194.6C426.1 194.5 425.7 194.3 425.5 194C425.3 193.6 425.2 193.1 425.4 192.8C427 188 431.9 184.9 437.1 185.6Z" fill="white"/>
<path fill-rule="evenodd" clip-rule="evenodd" d="M424.9 201.3L449.5 204.5C450.2 204.6 450.8 205.2 450.7 206L450.4 208.1C450.2 210 448.4 211.3 446.5 211.1L426 208.4C424.1 208.2 422.8 206.4 423 204.5L423.3 202.4C423.5 201.6 424.1 201.2 424.9 201.3Z" fill="white"/>
<path d="M404.5 246.3C404.5 246.3 411.7 248.2 416.9 245.4C422.1 242.6 424.3 238.2 426.2 237.5C428.1 236.9 423.8 235 421.5 236.6C419.1 238.2 411.8 243.2 410.5 243.5C409.2 243.7 404.5 246.3 404.5 246.3Z" fill="#F37B4D"/>
<path d="M364.3 181C364.3 181 368.1 175.2 370 173.8C371.9 172.4 383.2 169.2 384.6 168.1C386 167 387.6 168.3 386.3 170.3C385 172.3 377.2 174.1 375.5 176.4C373.9 178.8 364.3 181 364.3 181Z" fill="#F37B4D"/>
<path d="M365.5 184.9C365.5 184.9 370.7 186 374 187.9C377.3 189.8 384 190.2 384.4 188.4C384.7 186.6 375 181.8 375 181.8C375 181.8 366.6 180.4 365.5 184.9Z" fill="#F37B4D"/>
<path d="M368.4 232.9C368.4 232.9 378 231 380.7 229C383.4 227 388.2 224.8 393.5 224.6C398.8 224.4 402.1 222.6 404.6 221.4C407.1 220.2 410.7 221.4 408.2 223.8C405.7 226.2 392.7 235 393.5 236.2C394.2 237.5 400.5 237 403.3 237.6C406.1 238.2 408.8 239.8 414.1 235.6C419.4 231.4 422.7 230.1 423.5 230.7C424.3 231.3 414.9 241.5 412.3 243.9C409.8 246.3 400.4 249.6 395.9 248.6C391.4 247.6 375.2 242.9 370.5 245.8C365.8 248.6 368.4 232.9 368.4 232.9Z" fill="#FFA072"/>
<path d="M343.4 196C343.4 196 355.2 188.6 359.1 184C363 179.4 369.7 176.5 372.2 176.5C374.8 176.5 386.9 185.8 388 187.7C389.1 189.6 384.7 189.5 379.5 186.3C374.3 183.1 371.3 181.6 369 184.1C366.6 186.6 360.4 193.8 362.9 193.7C365.4 193.5 377.2 193.4 379.4 193.4C381.6 193.4 386.5 192.1 386.8 193.6C387.1 195 387 197.1 379.4 198.9C371.9 200.8 369.5 200.9 365.8 203.8C362.1 206.7 348.9 208.8 345.1 208C341.3 207.1 343.4 196 343.4 196Z" fill="#FFA072"/>
<path d="M301.7 196L312.9 213.1L343.5 191.2L353.9 213.1L306.9 251.6L301.7 196Z" fill="#194AB7"/>
<path d="M204.9 296.8C204.9 296.8 182 214.2 271.8 133.5C304.1 159.6 304.2 158.6 304.2 158.6C304.2 158.6 306.4 264.8 314.2 269.3C314.2 269.3 262.1 286 252.7 288.6C243.3 291.1 212.9 301.2 204.9 296.8Z" fill="#2C63D8"/>
<path d="M193.9 279.6C195.9 268.1 201.6 257.3 210 249.2C214.3 245 219.2 241.7 224.6 239C230.4 236.2 236.6 234.1 242.7 232C248.8 229.9 255 227.6 260.7 224.5C266.1 221.5 271 217.7 275.1 213.1C279.1 208.7 282.4 203.6 284.8 198.2C285.4 196.9 286.1 195.5 285.8 194C285.4 192.4 283.8 191.7 282.4 191.3C279 190.2 275.5 189.4 271.9 189.1C260.5 188.2 250.5 193.9 241.3 200C236.8 203.1 232.3 206.2 227.6 209C225.3 210.3 222.8 211.6 220.3 212.5C217.7 213.5 214.8 214.5 212 214.5C205 214.5 205.2 206.3 206.1 201.3C207.2 195.8 209.9 190.6 213.5 186.4C221.9 176.5 234.3 171.8 246.8 169.7C261 167.2 275.8 167.1 290.2 168C296.1 168.4 302.3 168.8 307.8 166.2C310.6 164.8 312.7 162.6 314.6 160.1C316.6 157.4 318.6 154.9 321.2 152.7C323.6 150.6 326.3 148.7 328.9 146.8C330.5 145.7 329 143.1 327.4 144.2C324.7 146.1 321.9 148.1 319.4 150.3C316.9 152.5 314.8 154.9 312.8 157.6C310.9 160.1 309 162.5 306 163.8C303.3 165 300.3 165.3 297.4 165.3C294.2 165.4 291.1 165.1 287.9 164.9C284.1 164.7 280.3 164.6 276.5 164.6C269.1 164.6 261.7 164.9 254.3 165.8C241.4 167.2 228.2 170.3 217.8 178.4C209 185.3 201.7 196.5 202.7 208.1C202.9 210.8 203.8 213.7 205.9 215.6C208.3 217.7 211.4 217.9 214.4 217.5C219.8 216.7 225 214.1 229.7 211.4C239.1 205.9 247.4 198.4 257.6 194.5C263.3 192.3 269.2 191.7 275.2 192.8C277 193.1 278.7 193.6 280.5 194.1C281 194.3 282.4 194.4 282.7 194.9C283.1 195.4 282.5 196.4 282.2 197C281 199.8 279.5 202.5 277.9 205C274.6 210.1 270.3 214.6 265.4 218.3C260.2 222.1 254.4 224.9 248.4 227.2C236.5 231.7 223.8 234.9 213.4 242.8C204.1 249.9 197 259.7 193.2 270.8C192.3 273.6 191.5 276.4 191 279.3C190.7 280.7 193.6 281.5 193.9 279.6Z" fill="#2C63D8"/>
<path d="M229.3 210C229.3 210.9 229.3 211.7 229.3 212.6C229.3 213 229.5 213.4 229.7 213.7C230 214 230.4 214.2 230.8 214.1C231.2 214.1 231.6 214 231.9 213.7C232.2 213.4 232.3 213 232.3 212.6C232.3 211.7 232.3 210.9 232.3 210C232.3 209.6 232.1 209.2 231.9 208.9C231.6 208.6 231.2 208.4 230.8 208.5C230.4 208.5 230 208.6 229.7 208.9C229.4 209.2 229.3 209.6 229.3 210Z" fill="white"/>
<path d="M241 196.9C242.9 196.9 242.9 193.9 241 193.9C239 193.9 239 196.9 241 196.9Z" fill="white"/>
<path d="M261.4 165.9C263.3 165.9 263.3 162.9 261.4 162.9C259.5 162.9 259.5 165.9 261.4 165.9Z" fill="white"/>
<path d="M274.9 146.5C276.8 146.5 276.8 143.5 274.9 143.5C273 143.5 273 146.5 274.9 146.5Z" fill="white"/>
<path d="M285.1 152.7C287 152.7 287 149.7 285.1 149.7C283.2 149.7 283.2 152.7 285.1 152.7Z" fill="white"/>
<path d="M298.2 168.1C300.1 168.1 300.1 165.1 298.2 165.1C296.3 165.1 296.3 168.1 298.2 168.1Z" fill="white"/>
<path d="M297.9 181.2C299.8 181.2 299.8 178.2 297.9 178.2C295.9 178.2 295.9 181.2 297.9 181.2Z" fill="white"/>
<path d="M298.2 197.6C300.1 197.6 300.1 194.6 298.2 194.6C296.3 194.6 296.3 197.6 298.2 197.6Z" fill="white"/>
<path d="M302.6 218C304.5 218 304.5 215 302.6 215C300.7 215 300.7 218 302.6 218Z" fill="white"/>
<path d="M304.1 202C306 202 306 199 304.1 199C302.1 199 302.1 202 304.1 202Z" fill="white"/>
<path d="M303.7 191.8C305.6 191.8 305.6 188.8 303.7 188.8C301.8 188.8 301.8 191.8 303.7 191.8Z" fill="white"/>
<path d="M303.7 184.1C305.6 184.1 305.6 181.1 303.7 181.1C301.8 181.1 301.8 184.1 303.7 184.1Z" fill="white"/>
<path d="M247.9 168.1C249.8 168.1 249.8 165.1 247.9 165.1C246 165.1 246 168.1 247.9 168.1Z" fill="white"/>
<path d="M234.8 181.6C236.7 181.6 236.7 178.6 234.8 178.6C232.8 178.6 232.8 181.6 234.8 181.6Z" fill="white"/>
<path d="M219.1 208.9C221 208.9 221 205.9 219.1 205.9C217.2 205.9 217.1 208.9 219.1 208.9Z" fill="white"/>
<path d="M212.2 244.3C214.1 244.3 214.1 241.3 212.2 241.3C210.2 241.3 210.2 244.3 212.2 244.3Z" fill="white"/>
<path d="M210.7 268.7C212.6 268.7 212.6 265.7 210.7 265.7C208.8 265.7 208.8 268.7 210.7 268.7Z" fill="white"/>
<path d="M217.6 251.2C219.5 251.2 219.5 248.2 217.6 248.2C215.7 248.2 215.7 251.2 217.6 251.2Z" fill="white"/>
<path d="M219.8 234.1C221.7 234.1 221.7 231.1 219.8 231.1C217.9 231.1 217.9 234.1 219.8 234.1Z" fill="white"/>
<path d="M230.4 233C232.3 233 232.3 230 230.4 230C228.5 230 228.5 233 230.4 233Z" fill="white"/>
<path d="M235.1 222.8C237 222.8 237 219.8 235.1 219.8C233.2 219.8 233.2 222.8 235.1 222.8Z" fill="white"/>
<path d="M240.6 208.9C242.5 208.9 242.5 205.9 240.6 205.9C238.7 205.9 238.7 208.9 240.6 208.9Z" fill="white"/>
<path d="M232.9 200.9C234.8 200.9 234.8 197.9 232.9 197.9C231 197.9 231 200.9 232.9 200.9Z" fill="white"/>
<path d="M242.1 185.2C244 185.2 244 182.2 242.1 182.2C240.1 182.2 240.1 185.2 242.1 185.2Z" fill="white"/>
<path d="M242.8 173.9C244.7 173.9 244.7 170.9 242.8 170.9C240.9 170.9 240.9 173.9 242.8 173.9Z" fill="white"/>
<path d="M257.8 156C259.7 156 259.7 153 257.8 153C255.8 153 255.8 156 257.8 156Z" fill="white"/>
<path d="M266.9 144.7C268.8 144.7 268.8 141.7 266.9 141.7C264.9 141.7 264.9 144.7 266.9 144.7Z" fill="white"/>
<path d="M235.1 239.6C237 239.6 237 236.6 235.1 236.6C233.2 236.6 233.2 239.6 235.1 239.6Z" fill="white"/>
<path d="M242.4 244.7C244.3 244.7 244.3 241.7 242.4 241.7C240.5 241.7 240.5 244.7 242.4 244.7Z" fill="white"/>
<path d="M241.3 258.5C243.2 258.5 243.2 255.5 241.3 255.5C239.4 255.5 239.4 258.5 241.3 258.5Z" fill="white"/>
<path d="M231.5 255.2C233.4 255.2 233.4 252.2 231.5 252.2C229.6 252.2 229.6 255.2 231.5 255.2Z" fill="white"/>
<path d="M219.8 280.4C221.7 280.4 221.7 277.4 219.8 277.4C217.9 277.4 217.9 280.4 219.8 280.4Z" fill="white"/>
<path d="M218 274.2C219.9 274.2 219.9 271.2 218 271.2C216.1 271.2 216.1 274.2 218 274.2Z" fill="white"/>
<path d="M207.8 290.6C209.7 290.6 209.7 287.6 207.8 287.6C205.8 287.6 205.8 290.6 207.8 290.6Z" fill="white"/>
<path d="M208.5 283.3C210.4 283.3 210.4 280.3 208.5 280.3C206.6 280.3 206.6 283.3 208.5 283.3Z" fill="white"/>
<path d="M232.2 265.5C234.1 265.5 234.1 262.5 232.2 262.5C230.3 262.5 230.3 265.5 232.2 265.5Z" fill="white"/>
<path d="M224.2 258.9C226.1 258.9 226.1 255.9 224.2 255.9C222.3 255.9 222.3 258.9 224.2 258.9Z" fill="white"/>
<path d="M218.7 262.2C220.6 262.2 220.6 259.2 218.7 259.2C216.8 259.2 216.8 262.2 218.7 262.2Z" fill="white"/>
<path d="M210 257.8C211.9 257.8 211.9 254.8 210 254.8C208 254.8 208 257.8 210 257.8Z" fill="white"/>
<path d="M212.5 228.3C214.4 228.3 214.4 225.3 212.5 225.3C210.6 225.3 210.6 228.3 212.5 228.3Z" fill="white"/>
<path d="M214.3 220.2C216.2 220.2 216.2 217.2 214.3 217.2C212.4 217.2 212.4 220.2 214.3 220.2Z" fill="white"/>
<path d="M225.3 193.2C227.2 193.2 227.2 190.2 225.3 190.2C223.4 190.2 223.4 193.2 225.3 193.2Z" fill="white"/>
<path d="M231.1 187C233 187 233 184 231.1 184C229.2 184 229.2 187 231.1 187Z" fill="white"/>
<path d="M269.1 279C271 279 271 276 269.1 276C267.1 276 267.1 279 269.1 279Z" fill="white"/>
<path d="M278.9 277.1C280.8 277.1 280.8 274.1 278.9 274.1C277 274.1 277 277.1 278.9 277.1Z" fill="white"/>
<path d="M289.5 276.8C291.4 276.8 291.4 273.8 289.5 273.8C287.6 273.8 287.6 276.8 289.5 276.8Z" fill="white"/>
<path d="M300.1 274.6C302 274.6 302 271.6 300.1 271.6C298.1 271.6 298.1 274.6 300.1 274.6Z" fill="white"/>
<path d="M309.9 273.1C311.8 273.1 311.8 270.1 309.9 270.1C308 270.1 308 273.1 309.9 273.1Z" fill="white"/>
<path d="M301.9 223.5C303.8 223.5 303.8 220.5 301.9 220.5C300 220.5 300 223.5 301.9 223.5Z" fill="white"/>
<path d="M302.3 231.5C304.2 231.5 304.2 228.5 302.3 228.5C300.3 228.5 300.3 231.5 302.3 231.5Z" fill="white"/>
<path d="M304.8 231.9C306.7 231.9 306.7 228.9 304.8 228.9C302.9 228.9 302.9 231.9 304.8 231.9Z" fill="white"/>
<path d="M299.7 174.3C301.6 174.3 301.6 171.3 299.7 171.3C297.8 171.3 297.8 174.3 299.7 174.3Z" fill="white"/>
<path d="M294.2 165.5C296.1 165.5 296.1 162.5 294.2 162.5C292.3 162.5 292.3 165.5 294.2 165.5Z" fill="white"/>
<path d="M289.5 157.1C291.4 157.1 291.4 154.1 289.5 154.1C287.6 154.1 287.6 157.1 289.5 157.1Z" fill="white"/>
<path d="M300.8 162.6C302.7 162.6 302.7 159.6 300.8 159.6C298.9 159.6 298.9 162.6 300.8 162.6Z" fill="white"/>
<path d="M281.5 157.1C283.4 157.1 283.4 154.1 281.5 154.1C279.5 154.1 279.5 157.1 281.5 157.1Z" fill="white"/>
<path d="M278.2 197.2C280.1 197.2 280.1 194.2 278.2 194.2C276.2 194.2 276.2 197.2 278.2 197.2Z" fill="white"/>
<path d="M278.2 214.4C280.1 214.4 280.1 211.4 278.2 211.4C276.2 211.4 276.2 214.4 278.2 214.4Z" fill="white"/>
<path d="M74.6 128.3C76.5 128.3 76.5 125.3 74.6 125.3C72.7 125.3 72.7 128.3 74.6 128.3Z" fill="white"/>
<path d="M247.8 188.4C247.8 188.4 233.4 252.2 249.1 266.8C264.8 281.4 312.7 266.8 312.7 266.8L247.8 188.4Z" fill="#1848B7"/>
<path d="M267 154.8C243.6 158.2 245.4 199.8 245.1 212.5C244.8 225.2 246.4 265.2 271.7 265.7C297 266.2 370.9 261.2 372 250.8C373.1 240.4 368.8 225 368.8 225C368.8 225 310.7 233.4 299.1 232.9C299.1 232.9 294.6 176.1 292.5 172C290.6 167.9 285.7 152 267 154.8Z" fill="#4074E6"/>
<path d="M276 165.5C277.9 165.5 277.9 162.5 276 162.5C274.1 162.5 274.1 165.5 276 165.5Z" fill="white"/>
<path d="M274.9 176.8C276.8 176.8 276.8 173.8 274.9 173.8C273 173.8 273 176.8 274.9 176.8Z" fill="white"/>
<path d="M267.2 170.3C269.1 170.3 269.1 167.3 267.2 167.3C265.3 167.3 265.3 170.3 267.2 170.3Z" fill="white"/>
<path d="M259.6 179.4C261.5 179.4 261.5 176.4 259.6 176.4C257.6 176.4 257.6 179.4 259.6 179.4Z" fill="white"/>
<path d="M259.2 168.1C261.1 168.1 261.1 165.1 259.2 165.1C257.3 165.1 257.3 168.1 259.2 168.1Z" fill="white"/>
<path d="M259.9 162.6C261.8 162.6 261.8 159.6 259.9 159.6C258 159.6 258 162.6 259.9 162.6Z" fill="white"/>
<path d="M282.6 166.6C284.5 166.6 284.5 163.6 282.6 163.6C280.6 163.6 280.6 166.6 282.6 166.6Z" fill="white"/>
<path d="M279.3 175C281.2 175 281.2 172 279.3 172C277.3 172 277.3 175 279.3 175Z" fill="white"/>
<path d="M286.2 176.8C288.1 176.8 288.1 173.8 286.2 173.8C284.3 173.8 284.3 176.8 286.2 176.8Z" fill="white"/>
<path d="M289.9 182.7C291.8 182.7 291.8 179.7 289.9 179.7C287.9 179.7 287.9 182.7 289.9 182.7Z" fill="white"/>
<path d="M285.8 196.9C287.7 196.9 287.7 193.9 285.8 193.9C283.9 193.9 283.9 196.9 285.8 196.9Z" fill="white"/>
<path d="M273.1 199.1C275 199.1 275 196.1 273.1 196.1C271.1 196.1 271.1 199.1 273.1 199.1Z" fill="white"/>
<path d="M257.8 195.8C259.7 195.8 259.7 192.8 257.8 192.8C255.8 192.8 255.8 195.8 257.8 195.8Z" fill="white"/>
<path d="M254.1 184.5C256 184.5 256 181.5 254.1 181.5C252.2 181.5 252.2 184.5 254.1 184.5Z" fill="white"/>
<path d="M248.3 192.9C250.2 192.9 250.2 189.9 248.3 189.9C246.3 189.9 246.3 192.9 248.3 192.9Z" fill="white"/>
<path d="M252.6 171.7C254.5 171.7 254.5 168.7 252.6 168.7C250.7 168.7 250.7 171.7 252.6 171.7Z" fill="white"/>
<path d="M273.4 178.6C275.3 178.6 275.3 175.6 273.4 175.6C271.5 175.6 271.5 178.6 273.4 178.6Z" fill="white"/>
<path d="M269.8 188.9C271.7 188.9 271.7 185.9 269.8 185.9C267.9 185.9 267.9 188.9 269.8 188.9Z" fill="white"/>
<path d="M267.2 177.9C269.1 177.9 269.1 174.9 267.2 174.9C265.3 174.9 265.3 177.9 267.2 177.9Z" fill="white"/>
<path d="M269.8 161.1C271.7 161.1 271.7 158.1 269.8 158.1C267.9 158.1 267.9 161.1 269.8 161.1Z" fill="white"/>
<path d="M282.9 189.6C284.8 189.6 284.8 186.6 282.9 186.6C281 186.6 281 189.6 282.9 189.6Z" fill="white"/>
<path d="M277.4 181.6C279.3 181.6 279.3 178.6 277.4 178.6C275.5 178.6 275.5 181.6 277.4 181.6Z" fill="white"/>
<path d="M278.9 210C280.8 210 280.8 207 278.9 207C277 207 277 210 278.9 210Z" fill="white"/>
<path d="M263.2 205.6C265.1 205.6 265.1 202.6 263.2 202.6C261.3 202.6 261.3 205.6 263.2 205.6Z" fill="white"/>
<path d="M255.2 212.9C257.1 212.9 257.1 209.9 255.2 209.9C253.3 209.9 253.3 212.9 255.2 212.9Z" fill="white"/>
<path d="M256.3 231.2C258.2 231.2 258.2 228.2 256.3 228.2C254.4 228.2 254.4 231.2 256.3 231.2Z" fill="white"/>
<path d="M284 246.1C285.9 246.1 285.9 243.1 284 243.1C282.1 243.1 282.1 246.1 284 246.1Z" fill="white"/>
<path d="M311.4 252.3C313.3 252.3 313.3 249.3 311.4 249.3C309.4 249.3 309.4 252.3 311.4 252.3Z" fill="white"/>
<path d="M319.8 243.9C321.7 243.9 321.7 240.9 319.8 240.9C317.8 240.9 317.8 243.9 319.8 243.9Z" fill="white"/>
<path d="M328.5 251.6C330.4 251.6 330.4 248.6 328.5 248.6C326.6 248.6 326.6 251.6 328.5 251.6Z" fill="white"/>
<path d="M335.4 237.4C337.3 237.4 337.3 234.4 335.4 234.4C333.5 234.4 333.5 237.4 335.4 237.4Z" fill="white"/>
<path d="M356.2 237.4C358.1 237.4 358.1 234.4 356.2 234.4C354.3 234.4 354.3 237.4 356.2 237.4Z" fill="white"/>
<path d="M359.2 248.3C361.1 248.3 361.1 245.3 359.2 245.3C357.2 245.3 357.2 248.3 359.2 248.3Z" fill="white"/>
<path d="M368.6 249.4C370.5 249.4 370.5 246.4 368.6 246.4C366.7 246.4 366.7 249.4 368.6 249.4Z" fill="white"/>
<path d="M368.6 235.9C370.5 235.9 370.5 232.9 368.6 232.9C366.7 232.9 366.7 235.9 368.6 235.9Z" fill="white"/>
<path d="M368.6 228.3C370.5 228.3 370.5 225.3 368.6 225.3C366.7 225.3 366.7 228.3 368.6 228.3Z" fill="white"/>
<path d="M338.4 250.5C340.3 250.5 340.3 247.5 338.4 247.5C336.4 247.5 336.4 250.5 338.4 250.5Z" fill="white"/>
<path d="M297.9 244.3C299.8 244.3 299.8 241.3 297.9 241.3C295.9 241.3 295.9 244.3 297.9 244.3Z" fill="white"/>
<path d="M284.4 230.4C286.3 230.4 286.3 227.4 284.4 227.4C282.4 227.4 282.4 230.4 284.4 230.4Z" fill="white"/>
<path d="M286.6 203.8C288.5 203.8 288.5 200.8 286.6 200.8C284.6 200.8 284.6 203.8 286.6 203.8Z" fill="white"/>
<path d="M267.6 237.4C269.5 237.4 269.5 234.4 267.6 234.4C265.7 234.4 265.7 237.4 267.6 237.4Z" fill="white"/>
<path d="M257.8 247.2C259.7 247.2 259.7 244.2 257.8 244.2C255.8 244.2 255.8 247.2 257.8 247.2Z" fill="white"/>
<path d="M265.4 257.8C267.3 257.8 267.3 254.8 265.4 254.8C263.5 254.8 263.5 257.8 265.4 257.8Z" fill="white"/>
<path d="M278.5 258.9C280.4 258.9 280.4 255.9 278.5 255.9C276.6 255.9 276.6 258.9 278.5 258.9Z" fill="white"/>
<path d="M298.6 259.6C300.5 259.6 300.5 256.6 298.6 256.6C296.7 256.6 296.7 259.6 298.6 259.6Z" fill="white"/>
<path d="M313.9 258.5C315.8 258.5 315.8 255.5 313.9 255.5C312 255.5 312 258.5 313.9 258.5Z" fill="white"/>
<path d="M313.2 241C315.1 241 315.1 238 313.2 238C311.3 238 311.3 241 313.2 241Z" fill="white"/>
<path d="M304.8 238.8C306.7 238.8 306.7 235.8 304.8 235.8C302.9 235.8 302.9 238.8 304.8 238.8Z" fill="white"/>
<path d="M294.6 228.6C296.5 228.6 296.5 225.6 294.6 225.6C292.7 225.6 292.7 228.6 294.6 228.6Z" fill="white"/>
<path d="M293.9 216.6C295.8 216.6 295.8 213.6 293.9 213.6C291.9 213.6 291.9 216.6 293.9 216.6Z" fill="white"/>
<path d="M293.5 207.1C295.4 207.1 295.4 204.1 293.5 204.1C291.6 204.1 291.6 207.1 293.5 207.1Z" fill="white"/>
<path d="M292.4 189.9C294.3 189.9 294.3 186.9 292.4 186.9C290.5 186.9 290.5 189.9 292.4 189.9Z" fill="white"/>
<path d="M267.2 215.8C269.1 215.8 269.1 212.8 267.2 212.8C265.3 212.8 265.3 215.8 267.2 215.8Z" fill="white"/>
<path d="M267.2 228.3C269.1 228.3 269.1 225.3 267.2 225.3C265.3 225.3 265.3 228.3 267.2 228.3Z" fill="white"/>
<path d="M274.5 221C276.4 221 276.4 218 274.5 218C272.6 218 272.6 221 274.5 221Z" fill="white"/>
<path d="M258.1 222.4C260 222.4 260 219.4 258.1 219.4C256.2 219.4 256.2 222.4 258.1 222.4Z" fill="white"/>
<path d="M247.2 222.4C249.1 222.4 249.1 219.4 247.2 219.4C245.2 219.4 245.2 222.4 247.2 222.4Z" fill="white"/>
<path d="M273.8 235.5C275.7 235.5 275.7 232.5 273.8 232.5C271.9 232.5 271.9 235.5 273.8 235.5Z" fill="white"/>
<path d="M272.3 252C274.2 252 274.2 249 272.3 249C270.4 249 270.4 252 272.3 252Z" fill="white"/>
<path d="M275.3 244.7C277.2 244.7 277.2 241.7 275.3 241.7C273.3 241.7 273.3 244.7 275.3 244.7Z" fill="white"/>
<path d="M284.7 218.8C286.6 218.8 286.6 215.8 284.7 215.8C282.8 215.8 282.8 218.8 284.7 218.8Z" fill="white"/>
<path d="M285.8 237.7C287.7 237.7 287.7 234.7 285.8 234.7C283.9 234.7 283.9 237.7 285.8 237.7Z" fill="white"/>
<path d="M289.5 246.1C291.4 246.1 291.4 243.1 289.5 243.1C287.6 243.1 287.6 246.1 289.5 246.1Z" fill="white"/>
<path d="M289.5 257.1C291.4 257.1 291.4 254.1 289.5 254.1C287.6 254.1 287.6 257.1 289.5 257.1Z" fill="white"/>
<path d="M284 262.5C285.9 262.5 285.9 259.5 284 259.5C282.1 259.5 282.1 262.5 284 262.5Z" fill="white"/>
<path d="M303.3 247.9C305.2 247.9 305.2 244.9 303.3 244.9C301.4 244.9 301.4 247.9 303.3 247.9Z" fill="white"/>
<path d="M303.7 257.8C305.6 257.8 305.6 254.8 303.7 254.8C301.8 254.8 301.8 257.8 303.7 257.8Z" fill="white"/>
<path d="M322 257.8C323.9 257.8 323.9 254.8 322 254.8C320 254.8 320 257.8 322 257.8Z" fill="white"/>
<path d="M327.8 242.8C329.7 242.8 329.7 239.8 327.8 239.8C325.9 239.8 325.9 242.8 327.8 242.8Z" fill="white"/>
<path d="M326.7 235.5C328.6 235.5 328.6 232.5 326.7 232.5C324.8 232.5 324.8 235.5 326.7 235.5Z" fill="white"/>
<path d="M317.6 235.2C319.5 235.2 319.5 232.2 317.6 232.2C315.6 232.2 315.6 235.2 317.6 235.2Z" fill="white"/>
<path d="M344.9 234.1C346.8 234.1 346.8 231.1 344.9 231.1C343 231.1 343 234.1 344.9 234.1Z" fill="white"/>
<path d="M342.7 241.7C344.6 241.7 344.6 238.7 342.7 238.7C340.8 238.7 340.8 241.7 342.7 241.7Z" fill="white"/>
<path d="M348.6 241C350.5 241 350.5 238 348.6 238C346.7 238 346.6 241 348.6 241Z" fill="white"/>
<path d="M347.9 255.2C349.8 255.2 349.8 252.2 347.9 252.2C345.9 252.2 345.9 255.2 347.9 255.2Z" fill="white"/>
<path d="M354.8 256.7C356.7 256.7 356.7 253.7 354.8 253.7C352.9 253.7 352.8 256.7 354.8 256.7Z" fill="white"/>
<path d="M354.4 247.9C356.3 247.9 356.3 244.9 354.4 244.9C352.5 244.9 352.5 247.9 354.4 247.9Z" fill="white"/>
<path d="M337.6 259.6C339.5 259.6 339.5 256.6 337.6 256.6C335.7 256.6 335.7 259.6 337.6 259.6Z" fill="white"/>
<path d="M353 229.7C354.9 229.7 354.9 226.7 353 226.7C351 226.7 351 229.7 353 229.7Z" fill="white"/>
<path d="M362.1 229.3C364 229.3 364 226.3 362.1 226.3C360.1 226.3 360.1 229.3 362.1 229.3Z" fill="white"/>
<path d="M362.4 235.9C364.3 235.9 364.3 232.9 362.4 232.9C360.5 232.9 360.5 235.9 362.4 235.9Z" fill="white"/>
<path d="M362.4 247.2C364.3 247.2 364.3 244.2 362.4 244.2C360.5 244.2 360.5 247.2 362.4 247.2Z" fill="white"/>
<path d="M362.4 253.8C364.3 253.8 364.3 250.8 362.4 250.8C360.5 250.8 360.5 253.8 362.4 253.8Z" fill="white"/>
<path d="M278.8 132C278.8 132 270.7 126.2 271.9 133.5C273.1 140.7 295 156.9 304.2 159.6C304.2 159.6 306.5 147.7 304.2 145.4C301.9 143.1 278.8 132 278.8 132Z" fill="#FECD43"/>
<path d="M312.9 134.3C312.9 134.3 302.1 144.2 301.7 150.2C301.7 150.2 298.7 149.5 293.5 146.4C289 143.8 283 139.4 275.8 132.2C275.8 132.2 288.6 124.8 291 115.6C291.1 115.2 291.3 114.8 291.5 114.5C295.2 109 312.9 134.3 312.9 134.3Z" fill="#FFA372"/>
<path d="M312.9 134.3C312.9 134.3 302.1 144.2 301.7 150.2C301.7 150.2 298.7 149.5 293.5 146.4C293.5 146.4 292.9 122.7 291.5 114.6C295.2 109 312.9 134.3 312.9 134.3Z" fill="#F37D4E"/>
<path d="M340.8 90.1C340.8 90.1 341 105.1 338.4 111.7C335.8 118.3 339.6 121.6 339.6 121.6C339.6 121.6 337.3 123.6 333.8 121.6C333.8 121.6 331.3 124 332.1 125.8C332.9 127.6 328.3 126.7 326.1 125C323.8 123.3 322.9 125.3 323.8 126.7C324.7 128.1 329.4 130.4 328.3 131.6C327.2 132.8 325.9 131.4 325.9 132.5C325.9 133.6 327 139 322.7 138.4C318.5 137.8 298.1 126.3 296.3 124.7C294.5 123 290.6 120.9 291 115.7C291.5 110.4 296.3 81 312 80.9C327.7 80.8 340.8 90.1 340.8 90.1Z" fill="#FFA072"/>
<path d="M328.3 103.6C328.3 103.6 334.7 101.7 335.3 106.4" stroke="#5E2E1E" stroke-miterlimit="10" stroke-linecap="round"/>
<path d="M333.128 109.73C333.618 108.678 333.527 107.599 332.926 107.319C332.326 107.04 331.442 107.665 330.952 108.717C330.463 109.768 330.553 110.847 331.154 111.127C331.755 111.407 332.639 110.781 333.128 109.73Z" fill="#5E2E1E"/>
<path d="M179.9 481.1H150.6C145 481.1 140.5 476.6 140.5 471L140.9 433.9H190.4L190 471C190 476.6 185.4 481.1 179.9 481.1Z" fill="#FFA800"/>
<path d="M162.9 433.9C162.9 433.9 148.3 325.7 122.4 290.7" stroke="#8ACBCF" stroke-width="1.3028" stroke-miterlimit="10" stroke-linecap="round"/>
<path d="M170.3 433.9C170.3 433.9 180.1 353 196.1 335.8" stroke="#8ACBCF" stroke-width="1.3028" stroke-miterlimit="10" stroke-linecap="round"/>
<path d="M131.1 345.2C131.1 345.2 145.4 352.5 149.6 363.5" stroke="#8ACBCF" stroke-width="1.3028" stroke-miterlimit="10" stroke-linecap="round"/>
<path d="M261.2 269.7C250.4 255.7 197.7 269.4 196.1 335.8C196.1 335.9 280.9 295.2 261.2 269.7Z" fill="#0992A4"/>
<path d="M188.6 264.8C179.5 256 134.1 277.8 144.1 341.1C144.1 341 210.2 285.6 188.6 264.8Z" fill="#048CA6"/>
<path d="M60.2 213.6C43.4 223.4 61.2 251.3 122.4 290.7C122.4 290.7 105.9 186.9 60.2 213.6Z" fill="#0992A4"/>
<path d="M36.9 345.2C36.2 369.1 67.2 370 131.1 345.2C131.1 345.2 38.5 290.1 36.9 345.2Z" fill="#0992A4"/>
<path d="M156.4 396.1C156.4 396.1 142.7 372.8 123.9 373.6C105.1 374.5 83.6 388.9 98.6 391.8C113.7 394.7 148.1 391.5 156.4 396.1Z" fill="#0992A4"/>
<path d="M178.7 384.9C178.7 384.9 211.5 338.2 239 352.9C266.5 367.6 231.7 371.7 221.3 373.7C210.8 375.7 183.3 379.7 178.7 384.9Z" fill="#0992A4"/>
<path d="M57.6 215.5C57.6 215.5 106.6 239.9 122.4 290.7" stroke="#8ACBCF" stroke-width="0.8685" stroke-miterlimit="10" stroke-linecap="round"/>
<path d="M104.1 255.5C104.1 255.5 81.3 260.3 66.8 246.8" stroke="#8ACBCF" stroke-width="0.8685" stroke-miterlimit="10" stroke-linecap="round"/>
<path d="M99.7 250C99.7 250 103.5 232.2 99.7 226.5" stroke="#8ACBCF" stroke-width="0.8685" stroke-miterlimit="10" stroke-linecap="round"/>
<path d="M112.9 269C112.9 269 115.6 261.4 113.8 256.3" stroke="#8ACBCF" stroke-width="0.8685" stroke-miterlimit="10" stroke-linecap="round"/>
<path d="M144.1 341C144.1 341 153.9 276.5 188.6 264.7" stroke="#8ACBCF" stroke-width="0.8685" stroke-miterlimit="10" stroke-linecap="round"/>
<path d="M174.4 310.7C174.4 310.7 168.4 297.9 155.4 302" stroke="#8ACBCF" stroke-width="0.8685" stroke-miterlimit="10" stroke-linecap="round"/>
<path d="M187.6 292.1C187.6 292.1 174.1 280.3 158.9 294.6" stroke="#8ACBCF" stroke-width="0.8685" stroke-miterlimit="10" stroke-linecap="round"/>
<path d="M196.1 335.9C196.1 335.9 212.6 297.2 238.2 286.2C238.2 286.2 236.4 270.9 251 265" stroke="#8ACBCF" stroke-width="0.8685" stroke-miterlimit="10" stroke-linecap="round"/>
<path d="M226.4 271.8C226.4 271.8 220.2 288.9 225 294.6" stroke="#8ACBCF" stroke-width="0.8685" stroke-miterlimit="10" stroke-linecap="round"/>
<path d="M260.8 288.5C260.8 288.5 240.5 298.1 232.2 289.2" stroke="#8ACBCF" stroke-width="0.8685" stroke-miterlimit="10" stroke-linecap="round"/>
<path d="M237.7 311.1C237.7 311.1 218.7 312.1 216.6 303.1" stroke="#8ACBCF" stroke-width="0.8685" stroke-miterlimit="10" stroke-linecap="round"/>
<path d="M203.7 299.1C203.7 299.1 200.8 316.8 207.1 315.8" stroke="#8ACBCF" stroke-width="0.8685" stroke-miterlimit="10" stroke-linecap="round"/>
<path d="M48.1 348.5C48.1 348.5 86.5 330.2 131.1 345.3" stroke="#8ACBCF" stroke-width="0.8685" stroke-miterlimit="10" stroke-linecap="round"/>
<path d="M41 330C41 330 65.3 325.5 65.8 342.1" stroke="#8ACBCF" stroke-width="0.8685" stroke-miterlimit="10" stroke-linecap="round"/>
<path d="M56 363.3C56 363.3 72.1 357.4 76.9 340.5" stroke="#8ACBCF" stroke-width="0.8685" stroke-miterlimit="10" stroke-linecap="round"/>
<path d="M88.3 325.7C88.3 325.7 94 329 93.5 339.3" stroke="#8ACBCF" stroke-width="0.8685" stroke-miterlimit="10" stroke-linecap="round"/>
<path d="M248 359.5C248 359.5 203.5 357.6 178.6 384.9" stroke="#8ACBCF" stroke-width="0.8685" stroke-miterlimit="10" stroke-linecap="round"/>
<path d="M292.6 61.5C292.6 61.5 289.7 68.4 292.6 71.3C292.6 71.3 281.2 75.8 284.4 86.2C287.6 96.6 288.9 106.4 283.8 109.3C278.7 112.2 291 121 295.8 120.2C300.6 119.4 302.7 109.8 301.9 108.5C301.1 107.2 297.7 98.8 306.1 95.3C314.5 91.8 316.5 102.8 315.1 106.8C313.8 110.8 320.4 109.4 320.4 109.4C320.4 109.4 322.2 94.6 327.9 93.3C333.6 92 351.3 94.8 350.8 80.1C350.8 80.1 340.2 83.6 340.2 77.2C340.2 70.8 333.8 69.5 333.8 69.5C333.8 69.5 332.7 56.3 320.4 63.1C320.4 63.1 314.9 53 308.3 56.7C301.7 60.5 295.2 67.3 292.6 61.5Z" fill="#5E2E1E"/>
</g>
<defs>
<linearGradient id="paint0_linear" x1="610.069" y1="307.274" x2="614.278" y2="471.699" gradientUnits="userSpaceOnUse">
<stop offset="0.0677083" stop-color="#FEA816" stop-opacity="0.5"/>
<stop offset="0.9999" stop-color="#FECD43" stop-opacity="0.1"/>
<stop offset="1" stop-color="#FECD43" stop-opacity="0.2"/>
</linearGradient>
<linearGradient id="paint1_linear" x1="223.5" y1="-129" x2="223.5" y2="429" gradientUnits="userSpaceOnUse">
<stop offset="0.390625" stop-color="#FEA816" stop-opacity="0.5"/>
<stop offset="0.703125" stop-color="#FECD43" stop-opacity="0.1"/>
<stop offset="1" stop-color="#FECD43" stop-opacity="0.2"/>
</linearGradient>
<clipPath id="clip0">
<rect width="666.3" height="517.1" fill="white"/>
</clipPath>
</defs>
</svg>
